<svg aria-hidden="true" style="position: absolute; width: 0; height: 0; overflow: hidden;" version="1.1" xmlns="http://www.w3.org/2000/svg" xmlns:xlink="http://www.w3.org/1999/xlink">
<defs>
<symbol id="pen" viewBox="0 0 32 32">
<path d="M22.669 1.206l-3.025 3.025 8.125 8.125 3.025-3.025c1.563-1.563 1.563-4.094 0-5.656l-2.462-2.469c-1.563-1.563-4.094-1.563-5.656 0zM18.231 5.644l-14.569 14.575c-0.65 0.65-1.125 1.456-1.388 2.337l-2.212 7.519c-0.156 0.531-0.012 1.1 0.375 1.488s0.956 0.531 1.481 0.381l7.519-2.212c0.881-0.262 1.688-0.738 2.338-1.387l14.581-14.575-8.125-8.125z"></path>
</symbol>
<symbol id="trash" viewBox="0 0 28 32">
<path d="M8.45 1.106l-0.45 0.894h-6c-1.106 0-2 0.894-2 2s0.894 2 2 2h24c1.106 0 2-0.894 2-2s-0.894-2-2-2h-6l-0.45-0.894c-0.337-0.681-1.031-1.106-1.788-1.106h-7.525c-0.756 0-1.45 0.425-1.787 1.106zM26 8h-24l1.325 21.188c0.1 1.581 1.413 2.813 2.994 2.813h15.362c1.581 0 2.894-1.231 2.994-2.813l1.325-21.188z"></path>
</symbol>
</defs>
</svg>
